<?xml version="1.0" encoding="utf-8"?>
<!-- Generator: Adobe Illustrator 22.1.0, SVG Export Plug-In . SVG Version: 6.00 Build 0)  -->
<svg version="1.1" id="Layer_1" xmlns="http://www.w3.org/2000/svg" xmlns:xlink="http://www.w3.org/1999/xlink" x="0px" y="0px"
	 viewBox="0 0 376 242" style="enable-background:new 0 0 376 242;" xml:space="preserve">
<style type="text/css">
	.st0{fill:#1B4A68;}
	.st1{fill:#202B32;}
	.st2{fill:#183953;}
	.st3{fill:#163952;}
	.st4{fill:#F5E351;}
</style>
<g>
	<polygon class="st0" points="0.1,64.1 182.1,127.5 367.5,64.1 183.8,0.1 	"/>
	<polygon class="st1" points="0.1,74.6 183.8,138.5 367.5,74.6 367.5,64.1 182.1,127.5 0.1,64.1 	"/>
	<ellipse class="st2" cx="182.9" cy="60.4" rx="15.4" ry="8.4"/>
	<polygon class="st3" points="84,202.5 84,103.8 183.8,138.5 283.6,103.8 283.6,206.4 183.8,242 	"/>
	<path class="st4" d="M34,216.8c0,0-3.3-52.8,13.6-57.2l3.5-59.4c0,0,1.1-14.2,17.2-20.7c17.8-7.1,27.6-8.4,99.2-19.1l4,5.6
		c0,0-93.2,10.6-104.7,19.8c0,0-8.2,4.8-9.5,13.9l-3.2,59.9c0,0,12.3,2.9,13.9,57.2C68.1,216.8,49.6,230.4,34,216.8z"/>
</g>
</svg>
